<svg xmlns="http://www.w3.org/2000/svg" version="1.1" xmlns:xlink="http://www.w3.org/1999/xlink" xmlns:svgjs="http://svgjs.dev/svgjs" width="1500" height="1500" viewBox="0 0 1500 1500"><rect width="1500" height="1500" fill="#000000"></rect><g transform="matrix(0.6666666666666666,0,0,0.6666666666666666,249.39393939393938,656.974145462639)"><svg viewBox="0 0 396 74" data-background-color="#ffffff" preserveAspectRatio="xMidYMid meet" height="280" width="1500" xmlns="http://www.w3.org/2000/svg" xmlns:xlink="http://www.w3.org/1999/xlink"><g id="tight-bounds" transform="matrix(1,0,0,1,0.2400000000000091,-0.12189337983190285)"><svg viewBox="0 0 395.52 74.24378675966379" height="74.24378675966379" width="395.52"><g><svg viewBox="0 0 395.52 74.24378675966379" height="74.24378675966379" width="395.52"><g><svg viewBox="0 0 395.52 74.24378675966379" height="74.24378675966379" width="395.52"><g id="textblocktransform"><svg viewBox="0 0 395.52 74.24378675966379" height="74.24378675966379" width="395.52" id="textblock"><g><svg viewBox="0 0 395.52 74.24378675966379" height="74.24378675966379" width="395.52"><g transform="matrix(1,0,0,1,0,0)"><svg width="395.52" viewBox="0.9 -36.7 196.299649122807 36.85" height="74.24378675966379" data-palette-color="#7c3aed"><g class="wordmark-text-0" data-fill-palette-color="primary" id="text-0"><path d="M23.15-0.1L7.05-0.1Q4.05-0.1 2.48-1.78 0.9-3.45 0.9-6.1L0.9-6.1Q0.9-7.65 1.53-8.8 2.15-9.95 3.05-10.85 3.95-11.75 4.8-12.55L4.8-12.55 16.85-24.35 16.55-25.3 6.55-25.3Q4.25-25.3 2.78-26.73 1.3-28.15 1.2-30.7L1.2-30.7Q1.15-33.2 2.7-34.75 4.25-36.3 6.55-36.3L6.55-36.3 23.2-36.3Q26.05-36.3 27.45-34.85 28.85-33.4 28.85-30.75L28.85-30.75Q28.85-28.85 27.8-27.18 26.75-25.5 25.45-24.25L25.45-24.25 12.65-11.65Q12.05-11.05 12.1-10.38 12.15-9.7 12.73-9.35 13.3-9 14.2-9.35L14.2-9.35Q15.85-10.05 17.3-10.8 18.75-11.55 20.18-12.08 21.6-12.6 23.15-12.6L23.15-12.6Q26.55-12.6 28.25-10.78 29.95-8.95 29.95-6.3L29.95-6.3Q29.95-3.65 28.25-1.88 26.55-0.1 23.15-0.1L23.15-0.1ZM48.6 0.15L48.6 0.15Q43.25 0.15 39.55-2.2 35.85-4.55 33.95-8.7 32.05-12.85 32.05-18.25L32.05-18.25Q32.05-23.6 33.95-27.78 35.85-31.95 39.55-34.33 43.25-36.7 48.6-36.7L48.6-36.7Q53.95-36.7 57.62-34.33 61.3-31.95 63.2-27.78 65.1-23.6 65.1-18.25L65.1-18.25Q65.1-12.85 63.2-8.7 61.3-4.55 57.62-2.2 53.95 0.15 48.6 0.15ZM38.35-19.05L38.35-19.05Q38.35-17.5 39.1-16.13 39.85-14.75 42.05-13.93 44.25-13.1 48.6-13.1L48.6-13.1Q52.95-13.1 55.12-13.93 57.3-14.75 58.05-16.13 58.8-17.5 58.8-19.05L58.8-19.05Q58.8-20.65 58.05-21.93 57.3-23.2 55.12-23.98 52.95-24.75 48.6-24.75L48.6-24.75Q44.25-24.75 42.05-23.98 39.85-23.2 39.1-21.93 38.35-20.65 38.35-19.05ZM83.9 0.15L83.9 0.15Q78.55 0.15 74.85-2.2 71.15-4.55 69.25-8.7 67.35-12.85 67.35-18.25L67.35-18.25Q67.35-23.6 69.25-27.78 71.15-31.95 74.85-34.33 78.55-36.7 83.9-36.7L83.9-36.7Q89.25-36.7 92.92-34.33 96.6-31.95 98.5-27.78 100.4-23.6 100.4-18.25L100.4-18.25Q100.4-12.85 98.5-8.7 96.6-4.55 92.92-2.2 89.25 0.15 83.9 0.15ZM73.65-19.05L73.65-19.05Q73.65-17.5 74.4-16.13 75.15-14.75 77.35-13.93 79.55-13.1 83.9-13.1L83.9-13.1Q88.25-13.1 90.42-13.93 92.6-14.75 93.35-16.13 94.1-17.5 94.1-19.05L94.1-19.05Q94.1-20.65 93.35-21.93 92.6-23.2 90.42-23.98 88.25-24.75 83.9-24.75L83.9-24.75Q79.55-24.75 77.35-23.98 75.15-23.2 74.4-21.93 73.65-20.65 73.65-19.05ZM120.29-11.55L113.39-11.55 113.39-5.3Q113.39-2.7 112.02-1.35 110.64 0 108.39 0L108.39 0 108.34 0Q105.89 0 104.47-1.35 103.04-2.7 103.04-5.3L103.04-5.3 103.04-12.35Q103.04-17.65 104.64-20.4 106.24-23.15 108.69-24.35L108.69-24.35 108.44-25.3 107.59-25.3Q105.29-25.3 103.97-26.78 102.64-28.25 102.59-30.8L102.59-30.8Q102.54-33.3 103.92-34.85 105.29-36.4 107.59-36.4L107.59-36.4 120.74-36.4Q125.79-36.4 128.97-33.38 132.14-30.35 132.14-23.85L132.14-23.85Q132.14-19.15 130.49-16.45 128.84-13.75 126.14-12.65 123.44-11.55 120.29-11.55L120.29-11.55ZM112.74-25.1L112.74-21.2Q112.74-20.1 113.17-19.75 113.59-19.4 114.69-19.4L114.69-19.4 119.34-19.4Q121.44-19.4 122.39-20.38 123.34-21.35 123.34-23.15L123.34-23.15Q123.34-24.95 122.39-25.9 121.44-26.85 119.34-26.85L119.34-26.85 114.69-26.85Q113.59-26.85 113.17-26.55 112.74-26.25 112.74-25.1L112.74-25.1ZM134.49-9.65L134.49-31.55Q134.49-33.85 135.92-35.13 137.34-36.4 139.59-36.4L139.59-36.4Q141.94-36.4 143.34-35.13 144.74-33.85 144.74-31.55L144.74-31.55 144.74-10.25Q144.74-9.3 145.24-8.93 145.74-8.55 146.89-9.2L146.89-9.2Q149.39-10.65 151.34-11.53 153.29-12.4 155.64-12.4L155.64-12.4Q158.89-12.4 160.54-10.7 162.19-9 162.19-6.25L162.19-6.25Q162.19-3.3 160.42-1.7 158.64-0.1 154.74-0.1L154.74-0.1 144.44-0.1Q141.14-0.1 138.94-0.88 136.74-1.65 135.62-3.7 134.49-5.75 134.49-9.65L134.49-9.65ZM168.29 0L168.29 0Q164.94-0.5 163.94-3.08 162.94-5.65 164.34-9.6L164.34-9.6 170.94-28.35Q171.84-30.95 173.01-32.8 174.19-34.65 175.96-35.65 177.74-36.65 180.39-36.65L180.39-36.65Q184.39-36.65 186.41-34.45 188.44-32.25 189.79-28.35L189.79-28.35 196.34-9.6Q197.74-5.65 196.86-3.08 195.99-0.5 192.59 0L192.59 0Q189.84 0.35 187.81-0.65 185.79-1.65 185.39-3.9L185.39-3.9Q185.09-5.4 185.31-6.4 185.54-7.4 185.74-8L185.74-8Q185.89-8.5 185.76-8.97 185.64-9.45 184.99-9.45L184.99-9.45 175.69-9.45Q175.04-9.45 174.91-8.97 174.79-8.5 174.99-8L174.99-8Q175.19-7.4 175.39-6.4 175.59-5.4 175.34-3.9L175.34-3.9Q174.94-1.65 172.99-0.65 171.04 0.35 168.29 0ZM176.74-16.45L184.04-16.45 181.44-24.6Q181.34-25.1 181.11-25.38 180.89-25.65 180.39-25.65L180.39-25.65Q179.89-25.65 179.66-25.38 179.44-25.1 179.29-24.6L179.29-24.6 176.74-16.45Z" fill="#ffffff" data-fill-palette-color="primary"></path></g></svg></g></svg></g></svg></g></svg></g></svg></g><defs></defs></svg><rect width="395.52" height="74.24378675966379" fill="none" stroke="none" visibility="hidden"></rect></g></svg></g></svg>